<?xml version="1.0" encoding="UTF-8" standalone="no"?>
<!-- Created with Inkscape (http://www.inkscape.org/) -->

<svg
   width="74.923943mm"
   height="50.078693mm"
   viewBox="0 0 74.923943 50.078693"
   version="1.1"
   id="svg1"
   inkscape:version="1.3.2 (1:1.3.2+202311252150+091e20ef0f)"
   sodipodi:docname="domain.svg"
   xmlns:inkscape="http://www.inkscape.org/namespaces/inkscape"
   xmlns:sodipodi="http://sodipodi.sourceforge.net/DTD/sodipodi-0.dtd"
   xmlns="http://www.w3.org/2000/svg"
   xmlns:svg="http://www.w3.org/2000/svg">
  <sodipodi:namedview
     id="namedview1"
     pagecolor="#ffffff"
     bordercolor="#666666"
     borderopacity="1.0"
     inkscape:showpageshadow="2"
     inkscape:pageopacity="0.0"
     inkscape:pagecheckerboard="0"
     inkscape:deskcolor="#d1d1d1"
     inkscape:document-units="mm"
     inkscape:zoom="5.7085856"
     inkscape:cx="49.048927"
     inkscape:cy="120.87057"
     inkscape:window-width="1850"
     inkscape:window-height="1136"
     inkscape:window-x="70"
     inkscape:window-y="27"
     inkscape:window-maximized="1"
     inkscape:current-layer="layer1" />
  <defs
     id="defs1">
    <marker
       style="overflow:visible"
       id="marker16"
       refX="0"
       refY="0"
       orient="auto-start-reverse"
       inkscape:stockid="Triangle arrow"
       markerWidth="1"
       markerHeight="1"
       viewBox="0 0 1 1"
       inkscape:isstock="true"
       inkscape:collect="always"
       preserveAspectRatio="xMidYMid">
      <path
         transform="scale(0.5)"
         style="fill:context-stroke;fill-rule:evenodd;stroke:context-stroke;stroke-width:1pt"
         d="M 5.77,0 -2.88,5 V -5 Z"
         id="path16" />
    </marker>
    <marker
       style="overflow:visible"
       id="marker13"
       refX="0"
       refY="0"
       orient="auto-start-reverse"
       inkscape:stockid="Triangle arrow"
       markerWidth="1"
       markerHeight="1"
       viewBox="0 0 1 1"
       inkscape:isstock="true"
       inkscape:collect="always"
       preserveAspectRatio="xMidYMid">
      <path
         transform="scale(0.5)"
         style="fill:context-stroke;fill-rule:evenodd;stroke:context-stroke;stroke-width:1pt"
         d="M 5.77,0 -2.88,5 V -5 Z"
         id="path13" />
    </marker>
    <marker
       style="overflow:visible"
       id="Triangle"
       refX="0"
       refY="0"
       orient="auto-start-reverse"
       inkscape:stockid="Triangle arrow"
       markerWidth="1"
       markerHeight="1"
       viewBox="0 0 1 1"
       inkscape:isstock="true"
       inkscape:collect="always"
       preserveAspectRatio="xMidYMid">
      <path
         transform="scale(0.5)"
         style="fill:context-stroke;fill-rule:evenodd;stroke:context-stroke;stroke-width:1pt"
         d="M 5.77,0 -2.88,5 V -5 Z"
         id="path135" />
    </marker>
  </defs>
  <g
     inkscape:label="Layer 1"
     inkscape:groupmode="layer"
     id="layer1"
     transform="translate(-48.2863, -21.7254)">
    <path
       style="fill:none;stroke:#000000;stroke-width:0.21532px;stroke-linecap:butt;stroke-linejoin:miter;stroke-opacity:1"
       d="M 55.457454,27.361914 V 66.58987"
       id="path1" />
    <path
       style="fill:none;stroke:#000000;stroke-width:0.264583px;stroke-linecap:butt;stroke-linejoin:miter;stroke-opacity:1"
       d="M 55.536933,66.446463 H 103.04644"
       id="path4" />
    <path
       style="fill:none;stroke:#000000;stroke-width:0.265228px;stroke-linecap:butt;stroke-linejoin:miter;stroke-opacity:1"
       d="M 55.522044,27.516132 H 102.86792"
       id="path5" />
    <path
       style="fill:none;stroke:#000000;stroke-width:0.269877px;stroke-linecap:butt;stroke-linejoin:miter;stroke-opacity:1"
       d="M 118.37124,38.732775 V 53.844908"
       id="path6" />
    <path
       style="fill:none;stroke:#000000;stroke-width:0.251374px;stroke-linecap:butt;stroke-linejoin:miter;stroke-opacity:1"
       d="M 102.90329,66.516168 118.39523,53.74504"
       id="path7" />
    <path
       style="fill:none;stroke:#000000;stroke-width:0.263102px;stroke-linecap:butt;stroke-linejoin:miter;stroke-opacity:1"
       d="M 118.40108,38.901264 102.71715,27.490673"
       id="path8" />
    <path
       style="fill:none;stroke:#000000;stroke-width:0.264583px;stroke-linecap:butt;stroke-linejoin:miter;stroke-opacity:1;marker-start:url(#marker13);marker-end:url(#Triangle)"
       d="M 52.467808,65.876915 V 27.799569"
       id="path9" />
    <path
       style="fill:none;stroke:#000000;stroke-width:0.264583px;stroke-linecap:butt;stroke-linejoin:miter;stroke-opacity:1;marker-start:url(#marker13);marker-end:url(#marker13)"
       d="M 55.649243,25.269871 H 101.92998"
       id="path10" />
    <path
       style="fill:none;stroke:#000000;stroke-width:0.264583px;stroke-linecap:butt;stroke-linejoin:miter;stroke-opacity:1;marker-start:url(#marker13);marker-end:url(#Triangle)"
       d="M 119.83086,53.779038 V 38.928431"
       id="path11" />
    <path
       style="fill:none;stroke:#000000;stroke-width:0.264583px;stroke-linecap:butt;stroke-linejoin:miter;stroke-opacity:1;marker-start:url(#Triangle);marker-end:url(#marker13)"
       d="M 55.913996,70.989761 H 118.05418"
       id="path12" />
    <g
       inkscape:label=""
       transform="translate(83.990329,67.390195)"
       id="g13">
      <g
         id="surface1"
         transform="matrix(0.352778,0,0,0.352778,-0.896011,-0.707231)">
        <g
           style="fill:#000000;fill-opacity:1"
           id="g3">
          <g
             id="use2"
             transform="translate(1.993,10.161)">
            <path
               style="stroke:none"
               d="M 4.390625,-7.25 C 4.5,-7.703125 4.53125,-7.8125 5.578125,-7.8125 c 0.328125,0 0.40625,0 0.40625,-0.234375 0,-0.109375 -0.125,-0.109375 -0.171875,-0.109375 -0.25,0 -0.515625,0.015625 -0.75,0.015625 H 3.453125 c -0.21875,0 -0.484375,-0.015625 -0.71875,-0.015625 -0.09375,0 -0.21875,0 -0.21875,0.21875 0,0.125 0.109375,0.125 0.28125,0.125 0.734375,0 0.734375,0.09375 0.734375,0.21875 0,0.03125 0,0.09375 -0.046875,0.28125 l -1.625,6.421875 C 1.75,-0.46875 1.734375,-0.34375 0.890625,-0.34375 c -0.21875,0 -0.34375,0 -0.34375,0.21875 C 0.546875,0 0.625,0 0.859375,0 H 6.21875 C 6.484375,0 6.484375,-0.015625 6.578125,-0.234375 L 7.5,-2.765625 c 0.015625,-0.0625 0.046875,-0.140625 0.046875,-0.171875 0,-0.078125 -0.0625,-0.125 -0.125,-0.125 -0.015625,0 -0.078125,0 -0.09375,0.046875 C 7.296875,-3 7.296875,-2.96875 7.203125,-2.75 c -0.375,1.046875 -0.921875,2.40625 -2.9375,2.40625 H 3.125 c -0.171875,0 -0.203125,0 -0.265625,-0.015625 C 2.71875,-0.375 2.71875,-0.390625 2.71875,-0.484375 c 0,-0.09375 0.015625,-0.15625 0.046875,-0.265625 z m 0,0"
               id="path3" />
          </g>
        </g>
      </g>
    </g>
    <g
       inkscape:label=""
       transform="translate(48.286264,45.756261)"
       id="g17">
      <g
         id="g16"
         transform="matrix(0.352778,0,0,0.352778,-0.901524,-0.707231)">
        <g
           style="fill:#000000;fill-opacity:1"
           id="g15">
          <g
             id="g14"
             transform="translate(1.993,10.161)">
            <path
               style="stroke:none"
               d="M 1.875,-0.890625 C 1.765625,-0.46875 1.75,-0.34375 0.90625,-0.34375 c -0.21875,0 -0.34375,0 -0.34375,0.21875 C 0.5625,0 0.640625,0 0.875,0 h 3.78125 c 2.421875,0 4.78125,-2.5 4.78125,-5.15625 0,-1.734375 -1.03125,-3 -2.75,-3 H 2.859375 c -0.234375,0 -0.34375,0 -0.34375,0.21875 0,0.125 0.109375,0.125 0.296875,0.125 0.71875,0 0.71875,0.09375 0.71875,0.21875 0,0.03125 0,0.09375 -0.046875,0.28125 z M 4.40625,-7.34375 C 4.5,-7.796875 4.546875,-7.8125 5.015625,-7.8125 h 1.3125 c 1.125,0 2.15625,0.609375 2.15625,2.25 0,0.609375 -0.234375,2.6875 -1.390625,4 -0.34375,0.390625 -1.25,1.21875 -2.625,1.21875 H 3.109375 c -0.171875,0 -0.1875,0 -0.265625,-0.015625 -0.125,-0.015625 -0.140625,-0.03125 -0.140625,-0.125 0,-0.09375 0.015625,-0.15625 0.046875,-0.265625 z m 0,0"
               id="path14" />
          </g>
        </g>
      </g>
    </g>
    <g
       inkscape:label=""
       transform="translate(76.061998,21.725371)"
       id="g21">
      <g
         id="g20"
         transform="matrix(0.352778,0,0,0.352778,-0.896011,-0.704541)">
        <g
           style="fill:#000000;fill-opacity:1"
           id="g19">
          <g
             id="g18"
             transform="translate(1.993,10.294)">
            <path
               style="stroke:none"
               d="m 3.03125,-8 c 0.015625,-0.046875 0.046875,-0.109375 0.046875,-0.171875 0,-0.125 -0.125,-0.125 -0.15625,-0.125 0,0 -0.4375,0.03125 -0.65625,0.0625 -0.203125,0.015625 -0.375,0.03125 -0.59375,0.046875 -0.28125,0.03125 -0.375,0.03125 -0.375,0.25 0,0.125 0.125,0.125 0.25,0.125 0.609375,0 0.609375,0.109375 0.609375,0.21875 0,0.046875 0,0.078125 -0.0625,0.296875 L 0.609375,-1.375 c -0.03125,0.125 -0.0625,0.234375 -0.0625,0.421875 0,0.59375 0.4375,1.078125 1.0625,1.078125 0.390625,0 0.65625,-0.265625 0.84375,-0.640625 0.203125,-0.390625 0.375,-1.140625 0.375,-1.1875 0,-0.0625 -0.0625,-0.109375 -0.125,-0.109375 -0.109375,0 -0.125,0.0625 -0.171875,0.234375 C 2.3125,-0.75 2.109375,-0.125 1.625,-0.125 c -0.359375,0 -0.359375,-0.375 -0.359375,-0.546875 0,-0.046875 0,-0.296875 0.078125,-0.625 z m 0,0"
               id="path17" />
          </g>
        </g>
      </g>
    </g>
    <g
       inkscape:label=""
       transform="translate(121.24788,45.619919)"
       id="g25">
      <g
         id="g24"
         transform="matrix(0.352778,0,0,0.352778,-0.873963,-0.704541)">
        <g
           style="fill:#000000;fill-opacity:1"
           id="g23">
          <g
             id="g22"
             transform="translate(1.993,10.294)">
            <path
               style="stroke:none"
               d="m 6.015625,-8 c 0.015625,-0.046875 0.03125,-0.109375 0.03125,-0.171875 0,-0.125 -0.125,-0.125 -0.140625,-0.125 -0.015625,0 -0.59375,0.046875 -0.65625,0.0625 -0.203125,0.015625 -0.390625,0.03125 -0.59375,0.046875 -0.3125,0.03125 -0.390625,0.03125 -0.390625,0.25 0,0.125 0.09375,0.125 0.265625,0.125 0.578125,0 0.59375,0.109375 0.59375,0.21875 0,0.078125 -0.015625,0.171875 -0.03125,0.203125 l -0.734375,2.90625 c -0.125,-0.3125 -0.453125,-0.78125 -1.078125,-0.78125 -1.34375,0 -2.796875,1.734375 -2.796875,3.515625 0,1.171875 0.6875,1.875 1.5,1.875 0.65625,0 1.21875,-0.515625 1.546875,-0.90625 0.125,0.703125 0.6875,0.90625 1.046875,0.90625 0.359375,0 0.640625,-0.21875 0.859375,-0.65625 0.1875,-0.40625 0.359375,-1.125 0.359375,-1.171875 0,-0.0625 -0.046875,-0.109375 -0.125,-0.109375 C 5.5625,-1.8125 5.5625,-1.75 5.515625,-1.578125 5.328125,-0.875 5.109375,-0.125 4.609375,-0.125 4.265625,-0.125 4.25,-0.4375 4.25,-0.671875 c 0,-0.046875 0,-0.296875 0.078125,-0.625 z M 3.59375,-1.421875 C 3.53125,-1.21875 3.53125,-1.1875 3.375,-0.96875 3.109375,-0.640625 2.578125,-0.125 2.015625,-0.125 1.53125,-0.125 1.25,-0.5625 1.25,-1.265625 c 0,-0.65625 0.375,-2 0.609375,-2.5 0.40625,-0.84375 0.96875,-1.265625 1.421875,-1.265625 0.796875,0 0.953125,0.984375 0.953125,1.078125 0,0.015625 -0.03125,0.15625 -0.046875,0.1875 z m 0,0"
               id="path21" />
          </g>
        </g>
      </g>
    </g>
    <path
       style="fill:none;stroke:#d81a1a;stroke-width:0.265;stroke-linecap:butt;stroke-linejoin:miter;stroke-dasharray:none;stroke-opacity:1;marker-end:url(#marker16)"
       d="M 55.451102,66.498122 V 63.100645"
       id="path2" />
    <path
       style="fill:none;stroke:#e71a1a;stroke-width:0.265;stroke-linecap:butt;stroke-linejoin:miter;stroke-dasharray:none;stroke-opacity:1;marker-end:url(#marker16)"
       d="m 55.30981,66.437853 h 2.80475"
       id="path15" />
    <g
       inkscape:label=""
       transform="translate(58.955049,64.022243)"
       id="g29">
      <g
         id="g28"
         transform="matrix(0.352778,0,0,0.352778,-0.818841,-0.660885)">
        <g
           style="fill:#000000;fill-opacity:1"
           id="g27">
          <g
             id="g26"
             transform="translate(1.993,7.1389999)">
            <path
               style="stroke:none"
               d="m 5.671875,-4.875 c -0.390625,0.0625 -0.53125,0.359375 -0.53125,0.578125 0,0.296875 0.21875,0.390625 0.390625,0.390625 0.359375,0 0.609375,-0.3125 0.609375,-0.640625 0,-0.5 -0.578125,-0.71875 -1.078125,-0.71875 -0.71875,0 -1.125,0.71875 -1.234375,0.9375 -0.28125,-0.890625 -1.015625,-0.9375 -1.234375,-0.9375 -1.21875,0 -1.859375,1.5625 -1.859375,1.828125 0,0.046875 0.046875,0.109375 0.125,0.109375 0.09375,0 0.125,-0.078125 0.140625,-0.125 0.40625,-1.328125 1.21875,-1.578125 1.5625,-1.578125 0.53125,0 0.640625,0.5 0.640625,0.78125 0,0.265625 -0.078125,0.546875 -0.21875,1.125 L 2.578125,-1.5 c -0.171875,0.71875 -0.515625,1.375 -1.15625,1.375 -0.0625,0 -0.359375,0 -0.609375,-0.15625 C 1.25,-0.359375 1.34375,-0.71875 1.34375,-0.859375 1.34375,-1.09375 1.15625,-1.25 0.9375,-1.25 c -0.296875,0 -0.609375,0.265625 -0.609375,0.640625 0,0.5 0.5625,0.734375 1.078125,0.734375 0.578125,0 0.984375,-0.453125 1.234375,-0.953125 C 2.828125,-0.125 3.4375,0.125 3.875,0.125 5.09375,0.125 5.734375,-1.453125 5.734375,-1.703125 5.734375,-1.765625 5.6875,-1.8125 5.625,-1.8125 5.515625,-1.8125 5.5,-1.75 5.46875,-1.65625 5.140625,-0.609375 4.453125,-0.125 3.90625,-0.125 3.484375,-0.125 3.265625,-0.4375 3.265625,-0.921875 3.265625,-1.1875 3.3125,-1.375 3.5,-2.15625 L 3.921875,-3.796875 C 4.09375,-4.5 4.5,-5.03125 5.0625,-5.03125 c 0.015625,0 0.359375,0 0.609375,0.15625 z m 0,0"
               id="path18" />
          </g>
        </g>
      </g>
    </g>
    <g
       inkscape:label=""
       transform="translate(56.385348,60.687939)"
       id="g33">
      <g
         id="g32"
         transform="matrix(0.352778,0,0,0.352778,-0.818841,-0.661238)">
        <g
           style="fill:#000000;fill-opacity:1"
           id="g31">
          <g
             id="g30"
             transform="translate(1.993,7.1399999)">
            <path
               style="stroke:none"
               d="m 3.140625,1.34375 c -0.3125,0.453125 -0.78125,0.859375 -1.375,0.859375 C 1.625,2.203125 1.046875,2.171875 0.875,1.625 c 0.03125,0.015625 0.09375,0.015625 0.109375,0.015625 0.359375,0 0.609375,-0.3125 0.609375,-0.59375 C 1.59375,0.78125 1.359375,0.6875 1.1875,0.6875 c -0.203125,0 -0.609375,0.140625 -0.609375,0.71875 0,0.609375 0.515625,1.03125 1.1875,1.03125 C 2.96875,2.4375 4.171875,1.34375 4.5,0.015625 L 5.671875,-4.65625 C 5.6875,-4.703125 5.71875,-4.78125 5.71875,-4.859375 5.71875,-5.03125 5.5625,-5.15625 5.390625,-5.15625 5.28125,-5.15625 5.03125,-5.109375 4.9375,-4.75 L 4.046875,-1.234375 C 4,-1.015625 4,-0.984375 3.890625,-0.859375 3.65625,-0.53125 3.265625,-0.125 2.6875,-0.125 c -0.671875,0 -0.734375,-0.65625 -0.734375,-0.96875 0,-0.6875 0.328125,-1.609375 0.65625,-2.46875 0.125,-0.34375 0.203125,-0.515625 0.203125,-0.75 0,-0.5 -0.359375,-0.953125 -0.953125,-0.953125 -1.09375,0 -1.53125,1.734375 -1.53125,1.828125 0,0.046875 0.046875,0.109375 0.125,0.109375 0.109375,0 0.125,-0.046875 0.171875,-0.21875 0.28125,-1 0.734375,-1.484375 1.203125,-1.484375 0.109375,0 0.3125,0 0.3125,0.390625 0,0.3125 -0.125,0.65625 -0.3125,1.109375 C 1.25,-1.953125 1.25,-1.5625 1.25,-1.28125 1.25,-0.140625 2.0625,0.125 2.65625,0.125 3,0.125 3.4375,0.015625 3.84375,-0.4375 l 0.015625,0.015625 C 3.6875,0.28125 3.5625,0.75 3.140625,1.34375 Z m 0,0"
               id="path29" />
          </g>
        </g>
      </g>
    </g>
  </g>
</svg>
