<?xml version="1.0" encoding="UTF-8" standalone="no"?>
<!-- Created with Inkscape (http://www.inkscape.org/) -->

<svg
   width="74.923943mm"
   height="50.078693mm"
   viewBox="0 0 74.923943 50.078693"
   version="1.1"
   id="svg1"
   inkscape:version="1.3.2 (1:1.3.2+202311252150+091e20ef0f)"
   sodipodi:docname="rebound_angle.svg"
   xmlns:inkscape="http://www.inkscape.org/namespaces/inkscape"
   xmlns:sodipodi="http://sodipodi.sourceforge.net/DTD/sodipodi-0.dtd"
   xmlns="http://www.w3.org/2000/svg"
   xmlns:svg="http://www.w3.org/2000/svg">
  <sodipodi:namedview
     id="namedview1"
     pagecolor="#ffffff"
     bordercolor="#666666"
     borderopacity="1.0"
     inkscape:showpageshadow="2"
     inkscape:pageopacity="0.0"
     inkscape:pagecheckerboard="0"
     inkscape:deskcolor="#d1d1d1"
     inkscape:document-units="mm"
     inkscape:zoom="4.0365798"
     inkscape:cx="191.49876"
     inkscape:cy="122.38083"
     inkscape:window-width="1850"
     inkscape:window-height="1136"
     inkscape:window-x="70"
     inkscape:window-y="1107"
     inkscape:window-maximized="1"
     inkscape:current-layer="layer1" />
  <defs
     id="defs1">
    <marker
       style="overflow:visible"
       id="marker13"
       refX="0"
       refY="0"
       orient="auto-start-reverse"
       inkscape:stockid="Triangle arrow"
       markerWidth="1"
       markerHeight="1"
       viewBox="0 0 1 1"
       inkscape:isstock="true"
       inkscape:collect="always"
       preserveAspectRatio="xMidYMid">
      <path
         transform="scale(0.5)"
         style="fill:context-stroke;fill-rule:evenodd;stroke:context-stroke;stroke-width:1pt"
         d="M 5.77,0 -2.88,5 V -5 Z"
         id="path13" />
    </marker>
    <marker
       style="overflow:visible"
       id="Triangle"
       refX="0"
       refY="0"
       orient="auto-start-reverse"
       inkscape:stockid="Triangle arrow"
       markerWidth="1"
       markerHeight="1"
       viewBox="0 0 1 1"
       inkscape:isstock="true"
       inkscape:collect="always"
       preserveAspectRatio="xMidYMid">
      <path
         transform="scale(0.5)"
         style="fill:context-stroke;fill-rule:evenodd;stroke:context-stroke;stroke-width:1pt"
         d="M 5.77,0 -2.88,5 V -5 Z"
         id="path135" />
    </marker>
  </defs>
  <g
     inkscape:label="Layer 1"
     inkscape:groupmode="layer"
     id="layer1"
     transform="translate(-48.2863, -21.7254)">
    <path
       style="fill:none;stroke:#000000;stroke-width:0.21532px;stroke-linecap:butt;stroke-linejoin:miter;stroke-opacity:1"
       d="M 55.457454,27.361914 V 66.58987"
       id="path1" />
    <path
       style="fill:none;stroke:#000000;stroke-width:0.264583px;stroke-linecap:butt;stroke-linejoin:miter;stroke-opacity:1"
       d="M 55.536933,66.446463 H 103.04644"
       id="path4" />
    <path
       style="fill:none;stroke:#000000;stroke-width:0.265228px;stroke-linecap:butt;stroke-linejoin:miter;stroke-opacity:1"
       d="M 55.522044,27.516132 H 102.86792"
       id="path5" />
    <path
       style="fill:none;stroke:#000000;stroke-width:0.269877px;stroke-linecap:butt;stroke-linejoin:miter;stroke-opacity:1"
       d="M 118.37124,38.732775 V 53.844908"
       id="path6" />
    <path
       style="fill:none;stroke:#000000;stroke-width:0.251374px;stroke-linecap:butt;stroke-linejoin:miter;stroke-opacity:1"
       d="M 102.90329,66.516168 118.39523,53.74504"
       id="path7" />
    <path
       style="fill:none;stroke:#000000;stroke-width:0.263102px;stroke-linecap:butt;stroke-linejoin:miter;stroke-opacity:1"
       d="M 118.40108,38.901264 102.71715,27.490673"
       id="path8" />
    <path
       style="fill:none;stroke:#000000;stroke-width:0.264583px;stroke-linecap:butt;stroke-linejoin:miter;stroke-opacity:1;marker-start:url(#marker13);marker-end:url(#Triangle)"
       d="M 52.467808,65.876915 V 27.799569"
       id="path9" />
    <path
       style="fill:none;stroke:#000000;stroke-width:0.264583px;stroke-linecap:butt;stroke-linejoin:miter;stroke-opacity:1;marker-start:url(#marker13);marker-end:url(#marker13)"
       d="M 55.649243,25.269871 H 101.92998"
       id="path10" />
    <path
       style="fill:none;stroke:#000000;stroke-width:0.264583px;stroke-linecap:butt;stroke-linejoin:miter;stroke-opacity:1;marker-start:url(#marker13);marker-end:url(#Triangle)"
       d="M 119.83086,53.779038 V 38.928431"
       id="path11" />
    <path
       style="fill:none;stroke:#000000;stroke-width:0.264583px;stroke-linecap:butt;stroke-linejoin:miter;stroke-opacity:1;marker-start:url(#Triangle);marker-end:url(#marker13)"
       d="M 55.913996,70.989761 H 118.05418"
       id="path12" />
    <g
       inkscape:label=""
       transform="translate(83.990329,67.390195)"
       id="g13">
      <g
         id="surface1"
         transform="matrix(0.352778,0,0,0.352778,-0.896011,-0.707231)">
        <g
           style="fill:#000000;fill-opacity:1"
           id="g3">
          <g
             id="use2"
             transform="translate(1.993,10.161)">
            <path
               style="stroke:none"
               d="M 4.390625,-7.25 C 4.5,-7.703125 4.53125,-7.8125 5.578125,-7.8125 c 0.328125,0 0.40625,0 0.40625,-0.234375 0,-0.109375 -0.125,-0.109375 -0.171875,-0.109375 -0.25,0 -0.515625,0.015625 -0.75,0.015625 H 3.453125 c -0.21875,0 -0.484375,-0.015625 -0.71875,-0.015625 -0.09375,0 -0.21875,0 -0.21875,0.21875 0,0.125 0.109375,0.125 0.28125,0.125 0.734375,0 0.734375,0.09375 0.734375,0.21875 0,0.03125 0,0.09375 -0.046875,0.28125 l -1.625,6.421875 C 1.75,-0.46875 1.734375,-0.34375 0.890625,-0.34375 c -0.21875,0 -0.34375,0 -0.34375,0.21875 C 0.546875,0 0.625,0 0.859375,0 H 6.21875 C 6.484375,0 6.484375,-0.015625 6.578125,-0.234375 L 7.5,-2.765625 c 0.015625,-0.0625 0.046875,-0.140625 0.046875,-0.171875 0,-0.078125 -0.0625,-0.125 -0.125,-0.125 -0.015625,0 -0.078125,0 -0.09375,0.046875 C 7.296875,-3 7.296875,-2.96875 7.203125,-2.75 c -0.375,1.046875 -0.921875,2.40625 -2.9375,2.40625 H 3.125 c -0.171875,0 -0.203125,0 -0.265625,-0.015625 C 2.71875,-0.375 2.71875,-0.390625 2.71875,-0.484375 c 0,-0.09375 0.015625,-0.15625 0.046875,-0.265625 z m 0,0"
               id="path3" />
          </g>
        </g>
      </g>
    </g>
    <g
       inkscape:label=""
       transform="translate(48.286264,45.756261)"
       id="g17">
      <g
         id="g16"
         transform="matrix(0.352778,0,0,0.352778,-0.901524,-0.707231)">
        <g
           style="fill:#000000;fill-opacity:1"
           id="g15">
          <g
             id="g14"
             transform="translate(1.993,10.161)">
            <path
               style="stroke:none"
               d="M 1.875,-0.890625 C 1.765625,-0.46875 1.75,-0.34375 0.90625,-0.34375 c -0.21875,0 -0.34375,0 -0.34375,0.21875 C 0.5625,0 0.640625,0 0.875,0 h 3.78125 c 2.421875,0 4.78125,-2.5 4.78125,-5.15625 0,-1.734375 -1.03125,-3 -2.75,-3 H 2.859375 c -0.234375,0 -0.34375,0 -0.34375,0.21875 0,0.125 0.109375,0.125 0.296875,0.125 0.71875,0 0.71875,0.09375 0.71875,0.21875 0,0.03125 0,0.09375 -0.046875,0.28125 z M 4.40625,-7.34375 C 4.5,-7.796875 4.546875,-7.8125 5.015625,-7.8125 h 1.3125 c 1.125,0 2.15625,0.609375 2.15625,2.25 0,0.609375 -0.234375,2.6875 -1.390625,4 -0.34375,0.390625 -1.25,1.21875 -2.625,1.21875 H 3.109375 c -0.171875,0 -0.1875,0 -0.265625,-0.015625 -0.125,-0.015625 -0.140625,-0.03125 -0.140625,-0.125 0,-0.09375 0.015625,-0.15625 0.046875,-0.265625 z m 0,0"
               id="path14" />
          </g>
        </g>
      </g>
    </g>
    <g
       inkscape:label=""
       transform="translate(76.061998,21.725371)"
       id="g21">
      <g
         id="g20"
         transform="matrix(0.352778,0,0,0.352778,-0.896011,-0.704541)">
        <g
           style="fill:#000000;fill-opacity:1"
           id="g19">
          <g
             id="g18"
             transform="translate(1.993,10.294)">
            <path
               style="stroke:none"
               d="m 3.03125,-8 c 0.015625,-0.046875 0.046875,-0.109375 0.046875,-0.171875 0,-0.125 -0.125,-0.125 -0.15625,-0.125 0,0 -0.4375,0.03125 -0.65625,0.0625 -0.203125,0.015625 -0.375,0.03125 -0.59375,0.046875 -0.28125,0.03125 -0.375,0.03125 -0.375,0.25 0,0.125 0.125,0.125 0.25,0.125 0.609375,0 0.609375,0.109375 0.609375,0.21875 0,0.046875 0,0.078125 -0.0625,0.296875 L 0.609375,-1.375 c -0.03125,0.125 -0.0625,0.234375 -0.0625,0.421875 0,0.59375 0.4375,1.078125 1.0625,1.078125 0.390625,0 0.65625,-0.265625 0.84375,-0.640625 0.203125,-0.390625 0.375,-1.140625 0.375,-1.1875 0,-0.0625 -0.0625,-0.109375 -0.125,-0.109375 -0.109375,0 -0.125,0.0625 -0.171875,0.234375 C 2.3125,-0.75 2.109375,-0.125 1.625,-0.125 c -0.359375,0 -0.359375,-0.375 -0.359375,-0.546875 0,-0.046875 0,-0.296875 0.078125,-0.625 z m 0,0"
               id="path17" />
          </g>
        </g>
      </g>
    </g>
    <g
       inkscape:label=""
       transform="translate(121.24788,45.619919)"
       id="g25">
      <g
         id="g24"
         transform="matrix(0.352778,0,0,0.352778,-0.873963,-0.704541)">
        <g
           style="fill:#000000;fill-opacity:1"
           id="g23">
          <g
             id="g22"
             transform="translate(1.993,10.294)">
            <path
               style="stroke:none"
               d="m 6.015625,-8 c 0.015625,-0.046875 0.03125,-0.109375 0.03125,-0.171875 0,-0.125 -0.125,-0.125 -0.140625,-0.125 -0.015625,0 -0.59375,0.046875 -0.65625,0.0625 -0.203125,0.015625 -0.390625,0.03125 -0.59375,0.046875 -0.3125,0.03125 -0.390625,0.03125 -0.390625,0.25 0,0.125 0.09375,0.125 0.265625,0.125 0.578125,0 0.59375,0.109375 0.59375,0.21875 0,0.078125 -0.015625,0.171875 -0.03125,0.203125 l -0.734375,2.90625 c -0.125,-0.3125 -0.453125,-0.78125 -1.078125,-0.78125 -1.34375,0 -2.796875,1.734375 -2.796875,3.515625 0,1.171875 0.6875,1.875 1.5,1.875 0.65625,0 1.21875,-0.515625 1.546875,-0.90625 0.125,0.703125 0.6875,0.90625 1.046875,0.90625 0.359375,0 0.640625,-0.21875 0.859375,-0.65625 0.1875,-0.40625 0.359375,-1.125 0.359375,-1.171875 0,-0.0625 -0.046875,-0.109375 -0.125,-0.109375 C 5.5625,-1.8125 5.5625,-1.75 5.515625,-1.578125 5.328125,-0.875 5.109375,-0.125 4.609375,-0.125 4.265625,-0.125 4.25,-0.4375 4.25,-0.671875 c 0,-0.046875 0,-0.296875 0.078125,-0.625 z M 3.59375,-1.421875 C 3.53125,-1.21875 3.53125,-1.1875 3.375,-0.96875 3.109375,-0.640625 2.578125,-0.125 2.015625,-0.125 1.53125,-0.125 1.25,-0.5625 1.25,-1.265625 c 0,-0.65625 0.375,-2 0.609375,-2.5 0.40625,-0.84375 0.96875,-1.265625 1.421875,-1.265625 0.796875,0 0.953125,0.984375 0.953125,1.078125 0,0.015625 -0.03125,0.15625 -0.046875,0.1875 z m 0,0"
               id="path21" />
          </g>
        </g>
      </g>
    </g>
    <circle
       style="opacity:1;fill:#ee0404;fill-opacity:1;stroke:none;stroke-width:0.565;stroke-dasharray:none"
       id="path25"
       cx="94.291695"
       cy="35.045891"
       r="0.59973311" />
    <path
       style="fill:none;stroke:#000000;stroke-width:0.265;stroke-linecap:butt;stroke-linejoin:miter;stroke-dasharray:0.795, 0.265;stroke-dashoffset:0;stroke-opacity:1"
       d="M 94.682634,34.944017 H 112.91985"
       id="path26" />
    <circle
       style="opacity:1;fill:#ee0404;fill-opacity:1;stroke:none;stroke-width:0.565;stroke-dasharray:none"
       id="circle26"
       cx="114.55021"
       cy="42.71339"
       r="0.59973311" />
    <path
       style="fill:none;stroke:#000000;stroke-width:0.264583px;stroke-linecap:butt;stroke-linejoin:miter;stroke-opacity:1;marker-end:url(#Triangle)"
       d="m 112.69476,35.065448 -9.19541,9.195406"
       id="path27" />
    <path
       style="fill:none;stroke:#000000;stroke-width:0.264583px;stroke-linecap:butt;stroke-linejoin:miter;stroke-opacity:1;stroke-dasharray:0.52916598,0.26458299;stroke-dashoffset:0"
       d="m 112.83471,35.086807 1.54223,7.059454"
       id="path28" />
    <path
       style="fill:none;stroke:#000000;stroke-width:0.264583px;stroke-linecap:butt;stroke-linejoin:miter;stroke-opacity:1"
       d="m 110.55261,37.344215 c 0.81077,1.319973 1.7953,1.097394 2.79403,0.748656"
       id="path29"
       sodipodi:nodetypes="cc" />
    <g
       inkscape:label=""
       transform="translate(110.74571,38.645192)"
       id="g33">
      <g
         id="g32"
         transform="matrix(0.352778,0,0,0.352778,-0.873963,-0.660444)">
        <g
           style="fill:#000000;fill-opacity:1"
           id="g31">
          <g
             id="g30"
             transform="translate(1.993,10.294)">
            <path
               style="stroke:none"
               d="m 5.296875,-6.015625 c 0,-1.21875 -0.390625,-2.40625 -1.359375,-2.40625 -1.671875,0 -3.453125,3.515625 -3.453125,6.140625 0,0.546875 0.109375,2.40625 1.375,2.40625 1.625,0 3.4375,-3.421875 3.4375,-6.140625 z m -3.625,1.6875 c 0.1875,-0.703125 0.4375,-1.703125 0.90625,-2.5625 0.390625,-0.71875 0.8125,-1.28125 1.34375,-1.28125 0.390625,0 0.65625,0.328125 0.65625,1.484375 0,0.421875 -0.03125,1.015625 -0.375,2.359375 z m 2.4375,0.359375 C 3.8125,-2.796875 3.5625,-2.046875 3.125,-1.296875 2.78125,-0.6875 2.359375,-0.125 1.859375,-0.125 1.5,-0.125 1.1875,-0.40625 1.1875,-1.59375 c 0,-0.765625 0.203125,-1.578125 0.390625,-2.375 z m 0,0"
               id="path30" />
          </g>
        </g>
      </g>
    </g>
    <g
       inkscape:label=""
       transform="translate(99.99762,44.441702)"
       id="g37">
      <g
         id="g36"
         transform="matrix(0.352778,0,0,0.352778,-0.835378,-0.669837)">
        <g
           style="fill:#000000;fill-opacity:1"
           id="g35">
          <g
             id="g34"
             transform="translate(1.993,7.3049998)">
            <path
               style="stroke:none"
               d="M 3.34375,-4.5 C 3.171875,-5.09375 2.515625,-5.40625 1.875,-5.40625 c -0.4375,0 -0.78125,0.25 -1.03125,0.6875 -0.3125,0.46875 -0.46875,1.125 -0.46875,1.1875 0,0.15625 0.1875,0.15625 0.296875,0.15625 0.125,0 0.171875,0 0.234375,-0.0625 C 0.9375,-3.453125 0.9375,-3.484375 1,-3.78125 c 0.25,-0.921875 0.5,-1.1875 0.8125,-1.1875 0.1875,0 0.28125,0.109375 0.28125,0.4375 0,0.203125 -0.046875,0.390625 -0.171875,0.875 C 1.84375,-3.328125 1.71875,-2.84375 1.65625,-2.578125 L 1.234375,-0.90625 c -0.046875,0.171875 -0.09375,0.390625 -0.09375,0.46875 0,0.265625 0.1875,0.53125 0.5625,0.53125 0.609375,0 0.765625,-0.546875 0.84375,-0.90625 C 2.671875,-1.25 2.765625,-1.640625 2.875,-2.15625 2.921875,-2.3125 3.234375,-3.53125 3.25,-3.578125 3.265625,-3.640625 3.59375,-4.1875 4,-4.5 c 0.328125,-0.265625 0.71875,-0.46875 1.21875,-0.46875 0.3125,0 0.609375,0.109375 0.609375,0.703125 0,0.6875 -0.53125,2.078125 -0.765625,2.671875 -0.125,0.328125 -0.15625,0.40625 -0.15625,0.609375 0,0.703125 0.6875,1.078125 1.34375,1.078125 1.265625,0 1.859375,-1.625 1.859375,-1.859375 0,-0.171875 -0.171875,-0.171875 -0.28125,-0.171875 -0.140625,0 -0.21875,0 -0.28125,0.15625 -0.390625,1.328125 -1.03125,1.453125 -1.21875,1.453125 -0.09375,0 -0.203125,0 -0.203125,-0.25 0,-0.28125 0.109375,-0.578125 0.234375,-0.875 0.1875,-0.5 0.734375,-1.890625 0.734375,-2.5625 0,-1.09375 -0.90625,-1.390625 -1.78125,-1.390625 -0.25,0 -1.109375,0 -1.96875,0.90625 z m 0,0"
               id="path33" />
          </g>
        </g>
      </g>
    </g>
  </g>
</svg>
